<?xml version="1.0" encoding="UTF-8" standalone="no"?>
<svg
   xmlns:dc="http://purl.org/dc/elements/1.1/"
   xmlns:cc="http://creativecommons.org/ns#"
   xmlns:rdf="http://www.w3.org/1999/02/22-rdf-syntax-ns#"
   xmlns:svg="http://www.w3.org/2000/svg"
   xmlns="http://www.w3.org/2000/svg"
   viewBox="0 0 841.88977 595.27557"
   id="svg2"
   height="595.27557"
   width="841.88977"
   version="1.1">
  <metadata
     id="metadata20">
    <rdf:RDF>
      <cc:Work
         rdf:about="">
        <dc:format>image/svg+xml</dc:format>
        <dc:type
           rdf:resource="http://purl.org/dc/dcmitype/StillImage" />
      </cc:Work>
    </rdf:RDF>
  </metadata>
  <defs
     id="defs18" />
  <g
     id="g4">
    <path
       id="path6"
       style="fill:#0a2957;fill-rule:evenodd"
       d="m 526.8859,188.4354 27.9504,16.0453 c 3.8484,28.2497 -3.1593,56.0442 -15.4668,81.532 l -26.2349,0 c 19.6095,-34.4877 23.5083,-65.9344 7.4831,-94.1338 l 6.2682,-3.4435 z M 168.3227,437.7376 167.558,260.9474 C 88.2043,321.4085 32.6556,416.81 74.1888,460.6976 c 41.0679,43.7617 128.5436,41.6916 215.0912,8.049 l 33.8186,0 C 214.2627,515.0439 101.9807,515.8085 64.2105,452.5076 34.8717,403.3354 84.064,311.5484 167.558,240.284 l 0,-75.7669 29.8469,-14.5386 46.6846,14.5386 31.3788,-71.1739 53.5716,42.8588 1.3381,20.017 17.0288,-18.4877 c 52.9377,-5.1262 105.7446,-7.9509 157.6561,5.3577 l 1.5318,7.6541 -45.5275,8.5547 c -20.5402,-6.5172 -41.0779,-6.3739 -61.6181,-1.6677 l 0,128.3826 -8.4189,0 0,-132.9731 -43.6234,0 0,132.9731 -17.6023,0 0,-120.7284 -55.1009,-45.9199 0,319.1379 -29.8494,0 0.7672,-257.1476 -48.2165,-13.0093 0,269.3922 -29.0822,0 z" />
    <path
       id="path8"
       style="fill:#950a2a;fill-rule:evenodd"
       d="m 329.8675,318.4746 -0.9272,0 -3.1367,0 c -6.0797,0 -11.3337,1.7061 -15.7613,5.1175 -4.8912,3.7599 -7.3365,8.7377 -7.3365,14.934 0,6.1274 2.4786,11.0702 7.4349,14.8301 4.4276,3.4812 9.6483,5.2215 15.6629,5.2215 l 4.0639,0 0,18.5899 -5.4525,0 c -11.1685,0 -20.7176,-3.4463 -28.6478,-10.3389 -8.3931,-7.3111 -12.5897,-16.745 -12.5897,-28.3026 0,-11.4877 4.2299,-20.9216 12.6897,-28.3017 7.9295,-6.8926 17.4459,-10.3397 28.5478,-10.3397 l 109.813,0 -18.0913,18.5899 -34.1266,0 0,58.693 -19.5292,0 0,-58.693 -32.6134,0 z m 141.3745,58.693 -20.8811,0 0,-10.4437 -37.4149,0 20.9859,-18.9028 16.429,0 0,-20.4 -58.0841,51.5217 0,-27.2578 58.0841,-51.8003 20.8811,0 0,77.2829 z m 76.5105,0 -20.6414,0 0,-29.3465 -26.1939,0 0,29.3465 -20.6414,0 0,-60.5729 20.6414,-18.5892 0,31.2257 26.1939,0 0,-29.3465 20.6414,0 0,77.2829 z m 89.91,-77.2829 -37.5459,36.7789 16.5949,15.5438 0,26.7354 -31.2233,-28.7193 -9.0505,8.459 0,18.4851 -20.0356,0 0,-60.3641 20.0356,-18.5892 0,33.3152 33.7646,-31.6448 27.4602,0 z m 96.3699,76.9003 0,-29.3465 25.8795,0 0,29.3465 20.3929,0 0,-60.573 -20.3929,-18.5892 0,31.2257 -25.8795,0 0,-29.3465 -20.3929,0 0,58.9899 -9.7602,-0.0167 0,-58.5905 -17.3237,0 -34.9562,32.3752 0,-33.9416 -20.1952,18.5899 0,61.617 52.2806,-47.9881 0,46.6305 50.3476,-0.3826 z" />
    <path
       id="path10"
       style="fill:#950a2a;fill-rule:evenodd"
       d="m 513.4823,126.2525 -2.296,30.9954 -69.2614,13.0104 65.8175,4.2093 -11.4798,35.5873 27.5515,-29.4648 26.0208,12.2451 -14.541,-24.1075 30.9954,-16.4544 -36.3527,4.5919 -16.4543,-30.6127 z" />
    <path
       id="path12"
       style="fill:#1b1918;fill-rule:evenodd"
       d="m 309.0592,424.2061 -5.3585,0 0,-17.2228 -3.8728,11.1788 -3.7161,0 -3.8737,-11.1788 0,17.2228 -5.0758,0 0,-25.7188 6.2535,0 4.7026,12.9006 4.6822,-12.9006 6.2586,0 0,25.7188 z m 21.1545,-9.693 c 0,3.1893 -0.7515,5.7074 -2.2658,7.541 -1.5082,1.8398 -3.6287,2.7592 -6.3583,2.7592 -2.7337,0 -4.8551,-0.9194 -6.3633,-2.7592 -1.5082,-1.8336 -2.2649,-4.3517 -2.2649,-7.541 0,-3.2076 0.7618,-5.7318 2.2791,-7.5654 1.5174,-1.8276 3.6348,-2.7469 6.3491,-2.7469 2.749,0 4.8745,0.9254 6.3735,2.7652 1.5032,1.8448 2.2506,4.3568 2.2506,7.5471 z m -6.2158,4.7168 c 0.3305,-0.4952 0.5746,-1.0912 0.7373,-1.7868 0.1627,-0.6956 0.2502,-1.6628 0.2502,-2.8954 0,-1.138 -0.0875,-2.093 -0.2553,-2.8649 -0.1668,-0.7729 -0.4017,-1.3861 -0.7027,-1.8519 -0.297,-0.4719 -0.656,-0.8014 -1.077,-0.9967 -0.4221,-0.2003 -0.8767,-0.2939 -1.3608,-0.2939 -0.4881,0 -0.9193,0.0763 -1.2977,0.241 -0.3834,0.1597 -0.7424,0.4841 -1.0861,0.9672 -0.3122,0.4485 -0.5563,1.0668 -0.7384,1.8458 -0.181,0.7841 -0.2725,1.7686 -0.2725,2.9534 0,1.0617 0.0763,1.9811 0.2349,2.7601 0.1627,0.7719 0.3926,1.3974 0.7038,1.8693 0.2959,0.4535 0.6559,0.778 1.0729,0.9844 0.416,0.2126 0.8899,0.3122 1.4218,0.3122 0.4596,0 0.8959,-0.0945 1.3119,-0.2827 0.417,-0.1892 0.7709,-0.5136 1.0577,-0.9611 z m 18.0425,5.4949 c -1.374,0 -2.6279,-0.2004 -3.768,-0.6072 -1.1349,-0.4007 -2.1255,-1.02 -2.9635,-1.8631 -0.8339,-0.8431 -1.4807,-1.8987 -1.9394,-3.1781 -0.4556,-1.2794 -0.6845,-2.7774 -0.6845,-4.4931 0,-1.8042 0.2431,-3.3663 0.7374,-4.6812 0.4881,-1.3089 1.1726,-2.4002 2.0533,-3.2666 0.8532,-0.8136 1.8336,-1.4147 2.9452,-1.793 1.1106,-0.3824 2.2689,-0.5716 3.4669,-0.5716 1.073,0 2.0635,0.1475 2.9727,0.4302 0.9052,0.2889 1.7523,0.6662 2.5385,1.1269 l 0,5.3006 -0.714,0 c -0.1963,-0.2065 -0.4353,-0.4485 -0.7088,-0.7252 -0.2766,-0.2776 -0.6173,-0.5491 -1.0201,-0.8136 -0.3824,-0.2481 -0.8044,-0.4607 -1.259,-0.6254 -0.4597,-0.1709 -0.9906,-0.2532 -1.5987,-0.2532 -1.3506,0 -2.3849,0.5247 -3.108,1.5804 -0.7281,1.0546 -1.0871,2.4875 -1.0871,4.2917 0,1.8692 0.3691,3.2849 1.1156,4.251 0.7424,0.9672 1.796,1.4513 3.1608,1.4513 0.6367,0 1.2113,-0.0885 1.7188,-0.2654 0.5125,-0.1831 0.9336,-0.3896 1.2692,-0.6316 0.3203,-0.2298 0.598,-0.4719 0.8431,-0.7251 0.243,-0.2533 0.4688,-0.5014 0.6742,-0.7424 l 0.714,0 0,5.3006 c -0.7943,0.4596 -1.6232,0.8247 -2.4907,1.0963 -0.8665,0.2715 -1.8194,0.4068 -2.8679,0.4068 z m 25.6995,-0.5187 -5.8376,0 -4.2174,-7.6885 -1.614,0 0,7.6885 -5.0525,0 0,-19.3982 5.0525,0 0,7.7882 c 0.9326,-0.0112 1.5794,-0.1353 1.9343,-0.3712 0.3539,-0.236 0.7658,-0.8604 1.2346,-1.8754 0.1394,-0.2939 0.3072,-0.6834 0.5035,-1.1553 0.1962,-0.4719 0.3539,-0.837 0.4637,-1.0851 0.5126,-1.1319 1.1167,-1.9689 1.8011,-2.5171 0.6895,-0.5481 1.6465,-0.8197 2.872,-0.8197 0.3549,0 0.7282,0.006 1.1258,0.0173 0.3977,0.0122 0.6712,0.0183 0.8095,0.0183 l 0,5.1826 -1.3739,0 c -0.5614,0 -1.0109,0.1709 -1.3414,0.5187 -0.3306,0.3417 -0.6174,0.8553 -0.8614,1.5326 -0.2055,0.5665 -0.3936,1.015 -0.5604,1.3445 -0.1729,0.3244 -0.3834,0.6071 -0.6468,0.838 l 5.7084,9.9818 z m 18.6548,-9.693 c 0,3.1893 -0.7516,5.7074 -2.2649,7.541 -1.5082,1.8398 -3.6297,2.7592 -6.3593,2.7592 -2.7337,0 -4.8551,-0.9194 -6.3633,-2.7592 -1.5082,-1.8336 -2.2649,-4.3517 -2.2649,-7.541 0,-3.2076 0.7618,-5.7318 2.2791,-7.5654 1.5184,-1.8276 3.6348,-2.7469 6.3491,-2.7469 2.749,0 4.8745,0.9254 6.3735,2.7652 1.5032,1.8448 2.2507,4.3568 2.2507,7.5471 z m -6.2159,4.7168 c 0.3305,-0.4952 0.5756,-1.0912 0.7383,-1.7868 0.1617,-0.6956 0.2492,-1.6628 0.2492,-2.8954 0,-1.138 -0.0875,-2.093 -0.2543,-2.8649 -0.1668,-0.7729 -0.4027,-1.3861 -0.7037,-1.8519 -0.297,-0.4719 -0.656,-0.8014 -1.077,-0.9967 -0.4211,-0.2003 -0.8767,-0.2939 -1.3608,-0.2939 -0.4881,0 -0.9193,0.0763 -1.2977,0.241 -0.3823,0.1597 -0.7424,0.4841 -1.0861,0.9672 -0.3112,0.4485 -0.5563,1.0668 -0.7373,1.8458 -0.1821,0.7841 -0.2726,1.7686 -0.2726,2.9534 0,1.0617 0.0753,1.9811 0.2339,2.7601 0.1627,0.7719 0.3926,1.3974 0.7038,1.8693 0.2969,0.4535 0.6559,0.778 1.0729,0.9844 0.416,0.2126 0.8899,0.3122 1.4218,0.3122 0.4597,0 0.8959,-0.0945 1.3119,-0.2827 0.417,-0.1892 0.7719,-0.5136 1.0577,-0.9611 z m 25.6324,-0.8786 c 0,0.9315 -0.1536,1.7624 -0.4546,2.4886 -0.3062,0.7251 -0.7089,1.3261 -1.2164,1.8092 -0.6376,0.6132 -1.3068,1.0261 -2.0116,1.2387 -0.7088,0.2125 -1.5458,0.3183 -2.5181,0.3183 l -9.5964,0 0,-19.3982 9.1896,0 c 1.1482,0 1.9964,0.0468 2.5374,0.1353 0.5462,0.0946 1.077,0.3183 1.5987,0.6783 0.5513,0.3651 0.9672,0.8543 1.2459,1.4675 0.2725,0.6082 0.4119,1.3333 0.4119,2.1764 0,0.955 -0.2207,1.792 -0.6662,2.512 -0.4454,0.719 -0.9814,1.2672 -1.6089,1.6506 l 0,0.1881 c 0.8716,0.2655 1.6038,0.7963 2.1978,1.5987 0.5939,0.8014 0.8909,1.8449 0.8909,3.1365 z m -5.9088,-7.7068 c 0,-0.7129 -0.1719,-1.2204 -0.5217,-1.5204 -0.3549,-0.295 -0.9143,-0.4485 -1.6903,-0.4485 l -2.6665,0 0,3.8676 2.7479,0 c 0.6855,0 1.2112,-0.1648 1.5804,-0.5065 0.3682,-0.3427 0.5502,-0.8024 0.5502,-1.3922 z m 0.7038,7.5176 c 0,-0.8431 -0.1963,-1.4319 -0.5838,-1.7747 -0.3875,-0.3356 -0.958,-0.5064 -1.7146,-0.5064 l -3.2839,0 0,4.4392 3.3652,0 c 0.6946,0 1.2357,-0.1943 1.6282,-0.5777 0.3926,-0.3885 0.5889,-0.9132 0.5889,-1.5804 z m 17.0702,6.5627 c -1.3739,0 -2.6279,-0.2004 -3.7679,-0.6072 -1.135,-0.4007 -2.1255,-1.02 -2.9646,-1.8631 -0.8329,-0.8431 -1.4797,-1.8987 -1.9384,-3.1781 -0.4556,-1.2794 -0.6854,-2.7774 -0.6854,-4.4931 0,-1.8042 0.2441,-3.3663 0.7383,-4.6812 0.4882,-1.3089 1.1726,-2.4002 2.0533,-3.2666 0.8523,-0.8136 1.8337,-1.4147 2.9442,-1.793 1.1116,-0.3824 2.27,-0.5716 3.467,-0.5716 1.0729,0 2.0645,0.1475 2.9737,0.4302 0.9051,0.2889 1.7523,0.6662 2.5384,1.1269 l 0,5.3006 -0.7139,0 c -0.1963,-0.2065 -0.4353,-0.4485 -0.7089,-0.7252 -0.2776,-0.2776 -0.6173,-0.5491 -1.02,-0.8136 -0.3834,-0.2481 -0.8045,-0.4607 -1.2591,-0.6254 -0.4596,-0.1709 -0.9915,-0.2532 -1.5987,-0.2532 -1.3506,0 -2.3848,0.5247 -3.1079,1.5804 -0.7282,1.0546 -1.0872,2.4875 -1.0872,4.2917 0,1.8692 0.3692,3.2849 1.1157,4.251 0.7424,0.9672 1.796,1.4513 3.1608,1.4513 0.6366,0 1.2102,-0.0885 1.7187,-0.2654 0.5115,-0.1831 0.9336,-0.3896 1.2682,-0.6316 0.3214,-0.2298 0.599,-0.4719 0.8431,-0.7251 0.2441,-0.2533 0.4698,-0.5014 0.6753,-0.7424 l 0.7139,0 0,5.3006 c -0.7953,0.4596 -1.6231,0.8247 -2.4906,1.0963 -0.8665,0.2715 -1.8194,0.4068 -2.868,0.4068 z m 25.6985,-0.5187 -5.8365,0 -4.2185,-7.6885 -1.614,0 0,7.6885 -5.0514,0 0,-19.3982 5.0514,0 0,7.7882 c 0.9336,-0.0112 1.5804,-0.1353 1.9343,-0.3712 0.355,-0.236 0.7669,-0.8604 1.2357,-1.8754 0.1393,-0.2939 0.3061,-0.6834 0.5034,-1.1553 0.1953,-0.4719 0.3539,-0.837 0.4638,-1.0851 0.5125,-1.1319 1.1156,-1.9689 1.8011,-2.5171 0.6895,-0.5481 1.6465,-0.8197 2.8719,-0.8197 0.355,0 0.7282,0.006 1.1259,0.0173 0.3966,0.0122 0.6702,0.0183 0.8095,0.0183 l 0,5.1826 -1.375,0 c -0.5604,0 -1.0099,0.1709 -1.3404,0.5187 -0.3305,0.3417 -0.6173,0.8553 -0.8614,1.5326 -0.2064,0.5665 -0.3936,1.015 -0.5603,1.3445 -0.1729,0.3244 -0.3835,0.6071 -0.6469,0.838 l 5.7074,9.9818 z m 18.4727,0 -4.8927,0 0,-11.8694 -6.8464,11.8694 -4.1809,0 0,-19.3982 4.8978,0 0,10.6246 6.34,-10.6246 4.6822,0 0,19.3982 z m 20.6908,0 -4.8937,0 0,-11.8694 -6.8465,11.8694 -4.1808,0 0,-19.3982 4.8988,0 0,10.6246 6.339,-10.6246 4.6832,0 0,19.3982 z m -1.738,-28.0009 c 0,1.8753 -0.5217,3.4079 -1.5662,4.5927 -1.0383,1.1858 -2.5852,1.7808 -4.6344,1.7808 -2.0401,0 -3.5819,-0.595 -4.6304,-1.7869 -1.0435,-1.1909 -1.5703,-2.7235 -1.5703,-4.5866 l 3.9023,0 c 0.0142,1.138 0.1962,1.9872 0.5318,2.5465 0.3346,0.5604 0.9245,0.838 1.7666,0.838 0.8522,0 1.441,-0.2715 1.7767,-0.8197 0.3305,-0.5481 0.5064,-1.4034 0.5268,-2.5648 l 3.8971,0 z m 31.6743,7.2522 -9.6767,0 0,20.7487 -5.387,0 0,-25.7188 15.0637,0 0,4.9701 z m 19.0616,11.0557 c 0,3.1893 -0.7516,5.7074 -2.2648,7.541 -1.5083,1.8398 -3.6297,2.7592 -6.3593,2.7592 -2.7337,0 -4.8552,-0.9194 -6.3634,-2.7592 -1.5082,-1.8336 -2.2638,-4.3517 -2.2638,-7.541 0,-3.2076 0.7607,-5.7318 2.2781,-7.5654 1.5183,-1.8276 3.6347,-2.7469 6.3491,-2.7469 2.7489,0 4.8744,0.9254 6.3735,2.7652 1.5031,1.8448 2.2506,4.3568 2.2506,7.5471 z m -6.2159,4.7168 c 0.3305,-0.4952 0.5756,-1.0912 0.7384,-1.7868 0.1627,-0.6956 0.2491,-1.6628 0.2491,-2.8954 0,-1.138 -0.0864,-2.093 -0.2542,-2.8649 -0.1668,-0.7729 -0.4028,-1.3861 -0.7038,-1.8519 -0.297,-0.4719 -0.656,-0.8014 -1.077,-0.9967 -0.421,-0.2003 -0.8766,-0.2939 -1.3607,-0.2939 -0.4882,0 -0.9184,0.0763 -1.2967,0.241 -0.3834,0.1597 -0.7424,0.4841 -1.0872,0.9672 -0.3112,0.4485 -0.5563,1.0668 -0.7373,1.8458 -0.182,0.7841 -0.2725,1.7686 -0.2725,2.9534 0,1.0617 0.0752,1.9811 0.2339,2.7601 0.1627,0.7719 0.3925,1.3974 0.7037,1.8693 0.297,0.4535 0.656,0.778 1.073,0.9844 0.4159,0.2126 0.8908,0.3122 1.4227,0.3122 0.4587,0 0.895,-0.0945 1.3109,-0.2827 0.417,-0.1892 0.7719,-0.5136 1.0577,-0.9611 z m 18.0426,5.4949 c -1.373,0 -2.628,-0.2004 -3.767,-0.6072 -1.135,-0.4007 -2.1265,-1.02 -2.9645,-1.8631 -0.833,-0.8431 -1.4798,-1.8987 -1.9395,-3.1781 -0.4546,-1.2794 -0.6844,-2.7774 -0.6844,-4.4931 0,-1.8042 0.2441,-3.3663 0.7373,-4.6812 0.4882,-1.3089 1.1726,-2.4002 2.0544,-3.2666 0.8522,-0.8136 1.8336,-1.4147 2.9442,-1.793 1.1105,-0.3824 2.2699,-0.5716 3.4669,-0.5716 1.0729,0 2.0635,0.1475 2.9737,0.4302 0.9051,0.2889 1.7523,0.6662 2.5374,1.1269 l 0,5.3006 -0.7139,0 c -0.1963,-0.2065 -0.4343,-0.4485 -0.7079,-0.7252 -0.2776,-0.2776 -0.6183,-0.5491 -1.02,-0.8136 -0.3834,-0.2481 -0.8044,-0.4607 -1.2601,-0.6254 -0.4586,-0.1709 -0.9905,-0.2532 -1.5987,-0.2532 -1.3506,0 -2.3838,0.5247 -3.1079,1.5804 -0.7272,1.0546 -1.0862,2.4875 -1.0862,4.2917 0,1.8692 0.3692,3.2849 1.1157,4.251 0.7424,0.9672 1.795,1.4513 3.1608,1.4513 0.6366,0 1.2102,-0.0885 1.7187,-0.2654 0.5116,-0.1831 0.9326,-0.3896 1.2682,-0.6316 0.3214,-0.2298 0.599,-0.4719 0.8431,-0.7251 0.2441,-0.2533 0.4688,-0.5014 0.6743,-0.7424 l 0.7139,0 0,5.3006 c -0.7943,0.4596 -1.6231,0.8247 -2.4896,1.0963 -0.8665,0.2715 -1.8194,0.4068 -2.8689,0.4068 z m 16.0898,-7.3763 3.5911,-12.5406 5.1907,0 -8.7533,26.5152 -5.4684,0 2.4947,-7.2522 -6.1294,-19.263 5.3006,0 3.774,12.5406 z m 28.0152,11.6568 -4.5063,0 0,-4.8704 -9.2831,0 0,4.8704 -4.5063,0 0,-9.1326 1.3078,0 c 0.7079,-1.8225 1.2784,-4.0446 1.7045,-6.6807 0.4261,-2.6299 0.6367,-5.4246 0.6367,-8.3841 l 13.0196,0 0,15.0648 1.6271,0 0,9.1326 z m -6.6511,-9.1326 0,-10.7314 -3.4659,0 c -0.1587,2.1347 -0.4262,4.1158 -0.8045,5.9434 -0.3783,1.8336 -0.8329,3.4252 -1.3699,4.788 l 5.6403,0 z m 19.6229,-0.7251 0,-4.0456 c -0.6803,0.0711 -1.4227,0.1657 -2.217,0.2837 -0.7953,0.1231 -1.3984,0.2654 -1.8103,0.4241 -0.5024,0.1942 -0.8898,0.4841 -1.1532,0.8553 -0.2685,0.3773 -0.4028,0.8665 -0.4028,1.4797 0,0.4007 0.0295,0.7312 0.0865,0.9845 0.0569,0.2542 0.1962,0.4952 0.422,0.7251 0.2156,0.2298 0.4689,0.4017 0.7699,0.5075 0.298,0.1118 0.7668,0.1647 1.4034,0.1647 0.5035,0 1.015,-0.1291 1.5367,-0.3773 0.5177,-0.2532 0.9723,-0.5898 1.3648,-1.0017 z m 0,3.0011 c -0.2674,0.2533 -0.6081,0.5594 -1.0098,0.9194 -0.4028,0.3539 -0.7811,0.6366 -1.135,0.8431 -0.4983,0.2776 -1.0099,0.4841 -1.5418,0.6132 -0.5359,0.1353 -1.1207,0.2004 -1.7533,0.2004 -1.499,0 -2.753,-0.5716 -3.7629,-1.7096 -1.0098,-1.1441 -1.5133,-2.6005 -1.5133,-4.369 0,-1.4208 0.2584,-2.5771 0.7709,-3.4731 0.5177,-0.902 1.2448,-1.6099 2.1886,-2.1285 0.9336,-0.5126 2.097,-0.8848 3.4812,-1.1024 1.3831,-0.2187 2.8201,-0.3835 4.3039,-0.4841 l 0,-0.1058 c 0,-1.0668 -0.3539,-1.8103 -1.0678,-2.2171 -0.7089,-0.4068 -1.7574,-0.6132 -3.1405,-0.6132 -0.834,0 -1.7198,0.1831 -2.6625,0.5431 -0.9489,0.3651 -1.6231,0.6427 -2.035,0.837 l -0.4648,0 0,-4.6813 c 0.5309,-0.1718 1.4035,-0.3783 2.6056,-0.6132 1.1959,-0.236 2.4031,-0.3539 3.6093,-0.3539 2.874,0 4.9466,0.542 6.2199,1.6333 1.2784,1.0902 1.916,2.7947 1.916,5.1236 l 0,13.1955 -5.0087,0 0,-2.0574 z m 26.0951,-7.9071 c 0,1.5977 -0.2003,3.054 -0.598,4.369 -0.3966,1.3089 -0.9183,2.394 -1.5651,3.2493 -0.6712,0.896 -1.4319,1.5743 -2.2852,2.034 -0.8522,0.4597 -1.7614,0.6895 -2.7337,0.6895 -0.9,0 -1.6607,-0.118 -2.2882,-0.3539 -0.6275,-0.2359 -1.2692,-0.5654 -1.9201,-0.9906 l 0,8.0842 -5.0514,0 0,-26.5152 5.0514,0 0,2.0218 c 0.776,-0.7607 1.5662,-1.379 2.3747,-1.8509 0.8095,-0.4719 1.7431,-0.7079 2.8008,-0.7079 1.9638,0 3.4913,0.8909 4.5785,2.6595 1.0912,1.7747 1.6363,4.2093 1.6363,7.3112 z m -5.2039,0.118 c 0,-1.8866 -0.2634,-3.2605 -0.7851,-4.1097 -0.5269,-0.8553 -1.3557,-1.2794 -2.4846,-1.2794 -0.4749,0 -0.9682,0.0885 -1.4705,0.2654 -0.5075,0.1821 -0.9906,0.4363 -1.4462,0.7719 l 0,9.7581 c 0.3356,0.1597 0.6936,0.2654 1.077,0.3132 0.3834,0.0468 0.7668,0.0702 1.14,0.0702 1.3364,0 2.332,-0.4831 2.988,-1.4441 0.6508,-0.9611 0.9814,-2.4113 0.9814,-4.3456 z m 17.055,10.3652 c -1.374,0 -2.6279,-0.2004 -3.768,-0.6072 -1.1349,-0.4007 -2.1255,-1.02 -2.9635,-1.8631 -0.8339,-0.8431 -1.4807,-1.8987 -1.9394,-3.1781 -0.4556,-1.2794 -0.6844,-2.7774 -0.6844,-4.4931 0,-1.8042 0.243,-3.3663 0.7373,-4.6812 0.4881,-1.3089 1.1726,-2.4002 2.0543,-3.2666 0.8522,-0.8136 1.8326,-1.4147 2.9442,-1.793 1.1106,-0.3824 2.2689,-0.5716 3.467,-0.5716 1.0729,0 2.0634,0.1475 2.9726,0.4302 0.9052,0.2889 1.7533,0.6662 2.5385,1.1269 l 0,5.3006 -0.714,0 c -0.1963,-0.2065 -0.4353,-0.4485 -0.7088,-0.7252 -0.2766,-0.2776 -0.6173,-0.5491 -1.0201,-0.8136 -0.3824,-0.2481 -0.8044,-0.4607 -1.259,-0.6254 -0.4587,-0.1709 -0.9906,-0.2532 -1.5987,-0.2532 -1.3506,0 -2.3849,0.5247 -3.108,1.5804 -0.7281,1.0546 -1.0871,2.4875 -1.0871,4.2917 0,1.8692 0.3691,3.2849 1.1156,4.251 0.7424,0.9672 1.796,1.4513 3.1608,1.4513 0.6367,0 1.2113,-0.0885 1.7188,-0.2654 0.5125,-0.1831 0.9336,-0.3896 1.2692,-0.6316 0.3203,-0.2298 0.598,-0.4719 0.8431,-0.7251 0.243,-0.2533 0.4688,-0.5014 0.6742,-0.7424 l 0.714,0 0,5.3006 c -0.7943,0.4596 -1.6232,0.8247 -2.4907,1.0963 -0.8665,0.2715 -1.8194,0.4068 -2.8679,0.4068 z m 21.8298,-15.7014 -5.0229,0 0,15.1827 -5.0514,0 0,-15.1827 -5.023,0 0,-4.2155 15.0973,0 0,4.2155 z m 18.3202,9.3279 c 0,0.9315 -0.1536,1.7624 -0.4556,2.4886 -0.3061,0.7251 -0.7078,1.3261 -1.2163,1.8092 -0.6367,0.6132 -1.3069,1.0261 -2.0106,1.2387 -0.7089,0.2125 -1.5469,0.3183 -2.5181,0.3183 l -9.5964,0 0,-19.3982 9.1886,0 c 1.1492,0 1.9973,0.0468 2.5384,0.1353 0.5461,0.0946 1.077,0.3183 1.5987,0.6783 0.5512,0.3651 0.9672,0.8543 1.2458,1.4675 0.2726,0.6082 0.4109,1.3333 0.4109,2.1764 0,0.955 -0.2207,1.792 -0.6651,2.512 -0.4455,0.719 -0.9814,1.2672 -1.6089,1.6506 l 0,0.1881 c 0.8705,0.2655 1.6038,0.7963 2.1977,1.5987 0.5929,0.8014 0.8909,1.8449 0.8909,3.1365 z m -5.9098,-7.7068 c 0,-0.7129 -0.1718,-1.2204 -0.5217,-1.5204 -0.3539,-0.295 -0.9143,-0.4485 -1.6892,-0.4485 l -2.6676,0 0,3.8676 2.7479,0 c 0.6855,0 1.2113,-0.1648 1.5804,-0.5065 0.3692,-0.3427 0.5502,-0.8024 0.5502,-1.3922 z m 0.7048,7.5176 c 0,-0.8431 -0.1963,-1.4319 -0.5848,-1.7747 -0.3874,-0.3356 -0.957,-0.5064 -1.7136,-0.5064 l -3.2849,0 0,4.4392 3.3663,0 c 0.6946,0 1.2346,-0.1943 1.6282,-0.5777 0.3925,-0.3885 0.5888,-0.9132 0.5888,-1.5804 z m 24.3774,-2.5059 -11.5592,0 c 0.0763,1.5214 0.5451,2.6829 1.4116,3.4914 0.8624,0.8014 2.1357,1.2082 3.8219,1.2082 1.0678,0 2.097,-0.236 3.0978,-0.7079 1.0007,-0.4769 1.7909,-0.9783 2.3747,-1.5204 l 0.5603,0 0,4.9874 c -1.1441,0.5664 -2.217,0.9732 -3.2279,1.2265 -1.0099,0.2542 -2.1256,0.3834 -3.351,0.3834 -3.1598,0 -5.5833,-0.8787 -7.2685,-2.6239 -1.6811,-1.7512 -2.5232,-4.2449 -2.5232,-7.482 0,-3.2015 0.7943,-5.7369 2.389,-7.6122 1.5946,-1.8693 3.7832,-2.8059 6.5606,-2.8059 2.5608,0 4.486,0.8014 5.7786,2.393 1.2936,1.5987 1.9353,3.892 1.9353,6.8871 l 0,2.1753 z m -5.024,-3.6439 c -0.0233,-1.3027 -0.2867,-2.2811 -0.7851,-2.936 -0.4932,-0.6601 -1.2631,-0.9845 -2.3126,-0.9845 -0.9723,0 -1.7716,0.3061 -2.3991,0.9316 -0.6265,0.6193 -0.9773,1.616 -1.0526,2.9889 l 6.5494,0 z m 24.4924,12.1938 -5.0474,0 0,-8.2722 -5.807,0 0,8.2722 -5.0525,0 0,-19.3982 5.0525,0 0,6.6858 5.807,0 0,-6.6858 5.0474,0 0,19.3982 z m 20.6755,0 -5.0473,0 0,-8.2722 -5.8081,0 0,8.2722 -5.0514,0 0,-19.3982 5.0514,0 0,6.6858 5.8081,0 0,-6.6858 5.0473,0 0,19.3982 z m 14.8949,-6.4976 c 0,-0.8258 -0.2003,-1.4502 -0.602,-1.8631 -0.4028,-0.4129 -0.9824,-0.6194 -1.7391,-0.6194 l -2.7479,0 0,5.0596 2.7479,0 c 0.5085,0 0.9153,-0.0885 1.2357,-0.2654 0.3162,-0.1831 0.5512,-0.4018 0.6997,-0.6662 0.1627,-0.2542 0.2674,-0.5197 0.3254,-0.7963 0.0529,-0.2776 0.0803,-0.5604 0.0803,-0.8492 z m 5.1908,-0.0468 c 0,0.9906 -0.1577,1.9039 -0.4739,2.7419 -0.3204,0.8431 -0.7374,1.5265 -1.2489,2.0573 -0.6377,0.6367 -1.2936,1.0852 -1.973,1.3506 -0.6753,0.2644 -1.5906,0.3946 -2.7388,0.3946 l -8.8824,0 0,-19.3982 5.0372,0 0,6.4793 3.8544,0 c 1.135,0 2.0492,0.1007 2.7439,0.301 0.6986,0.2004 1.3597,0.5899 1.9872,1.1675 0.5603,0.5187 0.9814,1.2082 1.2682,2.0818 0.2827,0.8665 0.4261,1.8093 0.4261,2.8242 z m 6.8189,6.5444 -5.0524,0 0,-19.3982 5.0524,0 0,19.3982 z m 20.703,0 -4.8927,0 0,-11.8694 -6.8465,11.8694 -4.1808,0 0,-19.3982 4.8978,0 0,10.6246 6.34,-10.6246 4.6822,0 0,19.3982 z m -1.737,-28.0009 c 0,1.8753 -0.5217,3.4079 -1.5662,4.5927 -1.0393,1.1858 -2.5862,1.7808 -4.6344,1.7808 -2.0401,0 -3.5819,-0.595 -4.6304,-1.7869 -1.0434,-1.1909 -1.5713,-2.7235 -1.5713,-4.5866 l 3.9033,0 c 0.0132,1.138 0.1962,1.9872 0.5319,2.5465 0.3335,0.5604 0.9234,0.838 1.7665,0.838 0.8522,0 1.4411,-0.2715 1.7757,-0.8197 0.3305,-0.5481 0.5074,-1.4034 0.5278,-2.5648 l 3.8971,0 z" />
    <path
       id="path14"
       style="fill:#1b1918;fill-rule:evenodd"
       d="m 304.4014,435.6412 -6.4112,0 0,20.7488 -5.2924,0 0,-20.7488 -6.4071,0 0,-4.97 18.1107,0 0,4.97 z m 18.1483,12.1989 -11.3558,0 c 0.0752,1.5214 0.5359,2.6828 1.3872,3.4913 0.8471,0.8014 2.098,1.2082 3.7547,1.2082 1.0485,0 2.0594,-0.2359 3.0429,-0.7078 0.9834,-0.477 1.7594,-0.9784 2.334,-1.5204 l 0.5502,0 0,4.9873 c -1.1248,0.5665 -2.1784,0.9733 -3.171,1.2265 -0.9926,0.2543 -2.0889,0.3834 -3.2931,0.3834 -3.1038,0 -5.4846,-0.8786 -7.1403,-2.6238 -1.6516,-1.7513 -2.4794,-4.2449 -2.4794,-7.482 0,-3.2016 0.781,-5.7369 2.3472,-7.6123 1.5662,-1.8692 3.7161,-2.8059 6.4447,-2.8059 2.5161,0 4.4077,0.8014 5.6779,2.393 1.2702,1.5988 1.9008,3.8921 1.9008,6.8871 l 0,2.1754 z m -4.9345,-3.6439 c -0.0234,-1.3028 -0.2827,-2.2811 -0.7719,-2.9361 -0.4841,-0.66 -1.2418,-0.9844 -2.272,-0.9844 -0.9549,0 -1.7401,0.3061 -2.3574,0.9315 -0.6153,0.6194 -0.959,1.616 -1.0343,2.989 l 6.4356,0 z m 24.6164,12.1938 -5.7908,0 -3.3073,-5.802 -3.3916,5.802 -5.6769,0 6.105,-9.693 -6.0074,-9.7052 5.7867,0 3.2544,5.7013 3.2646,-5.7013 5.6921,0 -6.0206,9.5516 6.0918,9.8466 z m 18.3273,0 -4.9589,0 0,-8.2723 -5.7053,0 0,8.2723 -4.963,0 0,-19.3982 4.963,0 0,6.6857 5.7053,0 0,-6.6857 4.9589,0 0,19.3982 z m 20.5047,-9.693 c 0,3.1893 -0.7384,5.7074 -2.2252,7.541 -1.4818,1.8398 -3.5656,2.7591 -6.2474,2.7591 -2.6859,0 -4.7697,-0.9193 -6.2515,-2.7591 -1.4818,-1.8336 -2.2252,-4.3517 -2.2252,-7.541 0,-3.2076 0.7485,-5.7318 2.2394,-7.5655 1.4909,-1.8275 3.5707,-2.7469 6.2373,-2.7469 2.7001,0 4.789,0.9255 6.2616,2.7653 1.4767,1.8448 2.211,4.3568 2.211,7.5471 z m -6.1061,4.7168 c 0.3244,-0.4953 0.5645,-1.0912 0.7241,-1.7868 0.1597,-0.6957 0.2451,-1.6628 0.2451,-2.8954 0,-1.1381 -0.0854,-2.093 -0.2502,-2.8649 -0.1637,-0.7729 -0.3946,-1.3862 -0.6905,-1.852 -0.2919,-0.4719 -0.6448,-0.8014 -1.0587,-0.9966 -0.4139,-0.2004 -0.8604,-0.2939 -1.3363,-0.2939 -0.479,0 -0.9031,0.0762 -1.2743,0.241 -0.3763,0.1597 -0.7292,0.4841 -1.0679,0.9672 -0.3061,0.4485 -0.5461,1.0668 -0.7251,1.8458 -0.178,0.7841 -0.2675,1.7686 -0.2675,2.9534 0,1.0617 0.0753,1.9811 0.2309,2.7601 0.1597,0.7719 0.3854,1.3973 0.6905,1.8692 0.2919,0.4536 0.6448,0.778 1.0547,0.9845 0.4088,0.2125 0.8746,0.3122 1.3973,0.3122 0.4505,0 0.8787,-0.0946 1.2885,-0.2827 0.4089,-0.1892 0.7577,-0.5136 1.0394,-0.9611 z m 25.0019,4.9762 -4.962,0 0,-15.0648 -4.0924,0 c -0.0284,0.8665 -0.0478,1.5387 -0.061,2.0167 -0.0152,0.477 -0.0335,1.0312 -0.0468,1.6628 -0.0671,1.857 -0.1891,3.3663 -0.3773,4.5277 -0.183,1.1614 -0.4139,2.1113 -0.7007,2.8486 -0.2776,0.7485 -0.5736,1.3434 -0.8888,1.7797 -0.3153,0.4373 -0.6357,0.8197 -0.9601,1.138 -0.3671,0.3723 -0.8461,0.6672 -1.44,0.8848 -0.5919,0.2187 -1.1615,0.3305 -1.7117,0.3305 -0.4322,0 -0.8705,-0.0233 -1.3129,-0.065 -0.4424,-0.0417 -0.6997,-0.059 -0.7851,-0.059 l 0,-4.9762 0.1505,0 c 0.0376,0 0.1037,0.006 0.1922,0.0173 0.0946,0.0122 0.1892,0.0183 0.2787,0.0183 0.239,0 0.4841,-0.0295 0.7383,-0.0885 0.2543,-0.0539 0.4607,-0.183 0.6255,-0.3773 0.6163,-0.7373 1.0261,-1.6628 1.2326,-2.7713 0.2074,-1.1146 0.3569,-2.754 0.4515,-4.9355 0.0326,-0.8014 0.0702,-1.7279 0.1088,-2.7591 0.0366,-1.0383 0.0702,-2.2109 0.0936,-3.5259 l 13.4671,0 0,19.3982 z m 20.5057,-9.693 c 0,3.1893 -0.7384,5.7074 -2.2252,7.541 -1.4818,1.8398 -3.5656,2.7591 -6.2464,2.7591 -2.6859,0 -4.7708,-0.9193 -6.2525,-2.7591 -1.4808,-1.8336 -2.2242,-4.3517 -2.2242,-7.541 0,-3.2076 0.7475,-5.7318 2.2384,-7.5655 1.4909,-1.8275 3.5707,-2.7469 6.2383,-2.7469 2.7001,0 4.788,0.9255 6.2606,2.7653 1.4767,1.8448 2.211,4.3568 2.211,7.5471 z m -6.1061,4.7168 c 0.3244,-0.4953 0.5644,-1.0912 0.7241,-1.7868 0.1607,-0.6957 0.2451,-1.6628 0.2451,-2.8954 0,-1.1381 -0.0844,-2.093 -0.2492,-2.8649 -0.1637,-0.7729 -0.3956,-1.3862 -0.6915,-1.852 -0.2909,-0.4719 -0.6448,-0.8014 -1.0577,-0.9966 -0.4139,-0.2004 -0.8614,-0.2939 -1.3363,-0.2939 -0.4801,0 -0.9031,0.0762 -1.2753,0.241 -0.3763,0.1597 -0.7292,0.4841 -1.0679,0.9672 -0.3051,0.4485 -0.5461,1.0668 -0.7241,1.8458 -0.179,0.7841 -0.2675,1.7686 -0.2675,2.9534 0,1.0617 0.0743,1.9811 0.2299,2.7601 0.1597,0.7719 0.3854,1.3973 0.6915,1.8692 0.2909,0.4536 0.6438,0.778 1.0536,0.9845 0.4089,0.2125 0.8747,0.3122 1.3974,0.3122 0.4515,0 0.8797,-0.0946 1.2885,-0.2827 0.4099,-0.1892 0.7577,-0.5136 1.0394,-0.9611 z m 22.1756,-10.1059 -7.5502,0 0,15.0821 -4.9629,0 0,-19.3982 12.5131,0 0,4.3161 z m 18.1249,15.0821 -4.8073,0 0,-11.8694 -6.7264,11.8694 -4.1077,0 0,-19.3982 4.8124,0 0,10.6245 6.2281,-10.6245 4.6009,0 0,19.3982 z m 19.3057,0 -4.9579,0 0,-6.6685 c -0.8278,0.2177 -1.6374,0.4007 -2.4276,0.5421 -0.7902,0.1475 -1.6465,0.2186 -2.5781,0.2186 -1.679,0 -3.0011,-0.5247 -3.9601,-1.5804 -0.9591,-1.0556 -1.4401,-2.5231 -1.4401,-4.4158 l 0,-7.4942 4.9873,0 0,4.4575 c 0,0.8492 0.0234,1.5214 0.0702,2.0106 0.0468,0.4892 0.2065,0.961 0.4841,1.4085 0.2543,0.4017 0.6021,0.7018 1.0445,0.897 0.4424,0.1943 1.1054,0.2939 1.9851,0.2939 0.2309,0 0.5319,-0.0112 0.9082,-0.0407 0.3804,-0.0294 0.6865,-0.0711 0.9265,-0.1118 l 0,-8.915 4.9579,0 0,19.3982 z m 19.927,-8.5499 -11.3558,0 c 0.0753,1.5214 0.536,2.6828 1.3872,3.4913 0.8471,0.8014 2.098,1.2082 3.7547,1.2082 1.0486,0 2.0595,-0.2359 3.0429,-0.7078 0.9834,-0.477 1.7594,-0.9784 2.334,-1.5204 l 0.5502,0 0,4.9873 c -1.1248,0.5665 -2.1784,0.9733 -3.171,1.2265 -0.9926,0.2543 -2.0889,0.3834 -3.293,0.3834 -3.1039,0 -5.4847,-0.8786 -7.1404,-2.6238 -1.6516,-1.7513 -2.4794,-4.2449 -2.4794,-7.482 0,-3.2016 0.781,-5.7369 2.3482,-7.6123 1.5652,-1.8692 3.7161,-2.8059 6.4447,-2.8059 2.5161,0 4.4067,0.8014 5.6769,2.393 1.2702,1.5988 1.9008,3.8921 1.9008,6.8871 l 0,2.1754 z m -4.9345,-3.6439 c -0.0234,-1.3028 -0.2827,-2.2811 -0.7719,-2.9361 -0.4841,-0.66 -1.2417,-0.9844 -2.272,-0.9844 -0.9549,0 -1.74,0.3061 -2.3563,0.9315 -0.6163,0.6194 -0.9601,1.616 -1.0353,2.989 l 6.4355,0 z m 16.4967,12.7124 c -1.3495,0 -2.5821,-0.2003 -3.7019,-0.6071 -1.1146,-0.4007 -2.0878,-1.0201 -2.9116,-1.8631 -0.8187,-0.8431 -1.4543,-1.8988 -1.9048,-3.1782 -0.4475,-1.2793 -0.6733,-2.7774 -0.6733,-4.493 0,-1.8042 0.24,-3.3663 0.7251,-4.6813 0.479,-1.3089 1.1523,-2.4001 2.0177,-3.2666 0.837,-0.8136 1.8011,-1.4146 2.8924,-1.7929 1.0912,-0.3824 2.2303,-0.5716 3.4059,-0.5716 1.0546,0 2.0279,0.1475 2.9218,0.4302 0.8889,0.2888 1.7208,0.6661 2.4927,1.1268 l 0,5.3006 -0.7007,0 c -0.1933,-0.2064 -0.4282,-0.4485 -0.6967,-0.7251 -0.2725,-0.2776 -0.6061,-0.5492 -1.0017,-0.8136 -0.3763,-0.2481 -0.7902,-0.4607 -1.2377,-0.6254 -0.4505,-0.1709 -0.9733,-0.2533 -1.5702,-0.2533 -1.3272,0 -2.3422,0.5248 -3.0531,1.5804 -0.7149,1.0547 -1.0678,2.4876 -1.0678,4.2918 0,1.8692 0.362,3.2849 1.0963,4.251 0.7292,0.9672 1.7635,1.4513 3.1049,1.4513 0.6255,0 1.1889,-0.0885 1.6882,-0.2655 0.5034,-0.183 0.9174,-0.3895 1.2469,-0.6315 0.3152,-0.2299 0.5878,-0.4719 0.8278,-0.7252 0.239,-0.2532 0.4607,-0.5013 0.6631,-0.7424 l 0.7007,0 0,5.3006 c -0.78,0.4597 -1.5947,0.8248 -2.4459,1.0963 -0.8512,0.2716 -1.7879,0.4068 -2.8181,0.4068 z m 25.248,-0.5186 -5.7349,0 -4.1442,-7.6885 -1.5855,0 0,7.6885 -4.963,0 0,-19.3982 4.963,0 0,7.7881 c 0.9173,-0.0111 1.5519,-0.1352 1.9007,-0.3712 0.3478,-0.2359 0.7526,-0.8603 1.2133,-1.8753 0.1363,-0.2939 0.301,-0.6834 0.4943,-1.1553 0.1922,-0.4719 0.3478,-0.837 0.4556,-1.0851 0.5034,-1.132 1.0963,-1.9689 1.7696,-2.5171 0.6773,-0.5482 1.618,-0.8197 2.8221,-0.8197 0.3488,0 0.715,0.006 1.1055,0.0173 0.3905,0.0122 0.659,0.0183 0.7953,0.0183 l 0,5.1826 -1.3506,0 c -0.5502,0 -0.9916,0.1709 -1.317,0.5187 -0.3254,0.3417 -0.6061,0.8553 -0.8472,1.5326 -0.2013,0.5664 -0.3854,1.0149 -0.5491,1.3445 -0.1699,0.3244 -0.3773,0.6071 -0.6357,0.838 l 5.6078,9.9818 z m 18.1472,0 -4.8073,0 0,-11.8694 -6.7264,11.8694 -4.1066,0 0,-19.3982 4.8124,0 0,10.6245 6.2281,-10.6245 4.5998,0 0,19.3982 z m 20.3268,0 -4.8074,0 0,-11.8694 -6.7264,11.8694 -4.1066,0 0,-19.3982 4.8114,0 0,10.6245 6.2281,-10.6245 4.6009,0 0,19.3982 z m -1.7076,-28.001 c 0,1.8754 -0.5126,3.408 -1.5377,4.5928 -1.021,1.1858 -2.5404,1.7807 -4.5531,1.7807 -2.0045,0 -3.5198,-0.5949 -4.549,-1.7868 -1.0251,-1.1909 -1.5428,-2.7235 -1.5428,-4.5867 l 3.8331,0 c 0.0142,1.138 0.1932,1.9872 0.5227,2.5466 0.3285,0.5603 0.9082,0.838 1.736,0.838 0.837,0 1.4157,-0.2716 1.7452,-0.8197 0.3244,-0.5482 0.4973,-1.4035 0.5176,-2.5649 l 3.828,0 z m 34.3826,2.2822 -7.4657,20.5718 c -0.4323,1.1848 -0.9306,2.1397 -1.4899,2.8648 -0.5604,0.7252 -1.1391,1.2621 -1.7371,1.6099 -0.597,0.354 -1.1848,0.5838 -1.7685,0.6896 -0.5838,0.1067 -1.1655,0.1535 -1.7452,0.1535 -0.6448,0 -1.4065,-0.0173 -2.2862,-0.059 -0.8838,-0.0406 -1.4675,-0.0762 -1.7492,-0.1118 l 0,-5.6128 0.3142,0 c 0.1932,0.0701 0.5329,0.1413 1.0221,0.2115 0.4841,0.0773 0.9682,0.118 1.4431,0.118 0.9123,0 1.6465,-0.1119 2.216,-0.3295 0.5645,-0.2187 0.9082,-0.5075 1.0394,-0.8675 l -8.3404,-19.2385 5.7491,0 5.0992,12.1927 4.2053,-12.1927 5.4938,0 z m 18.0822,25.7188 -4.9578,0 0,-8.2723 -5.7064,0 0,8.2723 -4.9629,0 0,-19.3982 4.9629,0 0,6.6857 5.7064,0 0,-6.6857 4.9578,0 0,19.3982 z m 20.3257,0 -4.8073,0 0,-11.8694 -6.7264,11.8694 -4.1067,0 0,-19.3982 4.8114,0 0,10.6245 6.2281,-10.6245 4.6009,0 0,19.3982 z m 20.2047,-5.8549 c 0,0.9316 -0.1505,1.7625 -0.4465,2.4886 -0.301,0.7251 -0.6966,1.3262 -1.196,1.8093 -0.6254,0.6132 -1.2834,1.0261 -1.975,1.2387 -0.6966,0.2125 -1.5194,0.3183 -2.4743,0.3183 l -9.4276,0 0,-19.3982 9.0279,0 c 1.1289,0 1.9618,0.0468 2.4937,0.1352 0.5359,0.0946 1.0576,0.3184 1.5702,0.6784 0.541,0.3651 0.9499,0.8543 1.2234,1.4675 0.2675,0.6082 0.4038,1.3333 0.4038,2.1764 0,0.9549 -0.2166,1.7919 -0.6539,2.512 -0.4373,0.719 -0.9631,1.2671 -1.5804,1.6505 l 0,0.1882 c 0.8563,0.2654 1.5763,0.7963 2.159,1.5987 0.5838,0.8014 0.8757,1.8448 0.8757,3.1364 z m -5.805,-7.7068 c 0,-0.7129 -0.1689,-1.2204 -0.5126,-1.5204 -0.3488,-0.2949 -0.899,-0.4485 -1.6608,-0.4485 l -2.6197,0 0,3.8677 2.6991,0 c 0.6742,0 1.1909,-0.1648 1.5529,-0.5065 0.3621,-0.3427 0.5411,-0.8024 0.5411,-1.3923 z m 0.6915,7.5177 c 0,-0.8431 -0.1932,-1.432 -0.5746,-1.7747 -0.3803,-0.3356 -0.9397,-0.5065 -1.6831,-0.5065 l -3.2269,0 0,4.4392 3.3062,0 c 0.6824,0 1.2143,-0.1942 1.5997,-0.5776 0.3855,-0.3885 0.5787,-0.9133 0.5787,-1.5804 z m 23.9493,-2.5059 -11.3568,0 c 0.0762,1.5214 0.5369,2.6828 1.3882,3.4913 0.8471,0.8014 2.098,1.2082 3.7537,1.2082 1.0495,0 2.0604,-0.2359 3.0439,-0.7078 0.9834,-0.477 1.7584,-0.9784 2.333,-1.5204 l 0.5502,0 0,4.9873 c -1.1248,0.5665 -2.1774,0.9733 -3.171,1.2265 -0.9916,0.2543 -2.0879,0.3834 -3.2921,0.3834 -3.1049,0 -5.4846,-0.8786 -7.1413,-2.6238 -1.6506,-1.7513 -2.4784,-4.2449 -2.4784,-7.482 0,-3.2016 0.78,-5.7369 2.3472,-7.6123 1.5662,-1.8692 3.7161,-2.8059 6.4447,-2.8059 2.5161,0 4.4077,0.8014 5.6769,2.393 1.2712,1.5988 1.9018,3.8921 1.9018,6.8871 l 0,2.1754 z m -4.9355,-3.6439 c -0.0234,-1.3028 -0.2817,-2.2811 -0.7709,-2.9361 -0.4851,-0.66 -1.2418,-0.9844 -2.272,-0.9844 -0.9549,0 -1.7411,0.3061 -2.3574,0.9315 -0.6163,0.6194 -0.96,1.616 -1.0343,2.989 l 6.4346,0 z m 24.5879,2.2292 c 0,1.5977 -0.1973,3.0541 -0.5868,4.3691 -0.3905,1.3088 -0.9031,2.394 -1.5387,3.2493 -0.659,0.8959 -1.4065,1.5743 -2.2445,2.034 -0.837,0.4596 -1.731,0.6895 -2.6859,0.6895 -0.8838,0 -1.6323,-0.118 -2.2476,-0.3539 -0.6173,-0.236 -1.2478,-0.5655 -1.8865,-0.9906 l 0,8.0841 -4.963,0 0,-26.5151 4.963,0 0,2.0218 c 0.7617,-0.7607 1.5377,-1.3791 2.333,-1.851 0.7943,-0.4718 1.7126,-0.7078 2.752,-0.7078 1.9282,0 3.4293,0.8909 4.4971,2.6595 1.0719,1.7746 1.6079,4.2093 1.6079,7.3111 z m -5.1135,0.118 c 0,-1.8865 -0.2583,-3.2605 -0.7708,-4.1097 -0.5177,-0.8553 -1.3313,-1.2793 -2.4408,-1.2793 -0.4658,0 -0.9509,0.0884 -1.4442,0.2654 -0.4993,0.182 -0.9743,0.4363 -1.4207,0.7719 l 0,9.7581 c 0.3295,0.1596 0.6814,0.2654 1.0577,0.3132 0.3763,0.0468 0.7536,0.0702 1.1197,0.0702 1.3129,0 2.2913,-0.4831 2.936,-1.4442 0.6387,-0.961 0.9631,-2.4113 0.9631,-4.3456 z m 16.7561,10.3652 c -1.3496,0 -2.5822,-0.2003 -3.7019,-0.6071 -1.1146,-0.4007 -2.0879,-1.0201 -2.9117,-1.8631 -0.8186,-0.8431 -1.4543,-1.8988 -1.9048,-3.1782 -0.4475,-1.2793 -0.6732,-2.7774 -0.6732,-4.493 0,-1.8042 0.24,-3.3663 0.7251,-4.6813 0.479,-1.3089 1.1522,-2.4001 2.0177,-3.2666 0.837,-0.8136 1.8011,-1.4146 2.8923,-1.7929 1.0913,-0.3824 2.2303,-0.5716 3.406,-0.5716 1.0546,0 2.0278,0.1475 2.9218,0.4302 0.8888,0.2888 1.7218,0.6661 2.4926,1.1268 l 0,5.3006 -0.7007,0 c -0.1932,-0.2064 -0.4271,-0.4485 -0.6966,-0.7251 -0.2726,-0.2776 -0.6061,-0.5492 -1.0018,-0.8136 -0.3762,-0.2481 -0.7902,-0.4607 -1.2376,-0.6254 -0.4506,-0.1709 -0.9733,-0.2533 -1.5703,-0.2533 -1.3272,0 -2.3421,0.5248 -3.053,1.5804 -0.7149,1.0547 -1.0678,2.4876 -1.0678,4.2918 0,1.8692 0.362,3.2849 1.0963,4.251 0.7292,0.9672 1.7634,1.4513 3.1049,1.4513 0.6254,0 1.1888,-0.0885 1.6882,-0.2655 0.5034,-0.183 0.9173,-0.3895 1.2468,-0.6315 0.3153,-0.2299 0.5878,-0.4719 0.8279,-0.7252 0.24,-0.2532 0.4607,-0.5013 0.663,-0.7424 l 0.7007,0 0,5.3006 c -0.78,0.4597 -1.5936,0.8248 -2.4458,1.0963 -0.8513,0.2716 -1.7879,0.4068 -2.8181,0.4068 z m 24.4618,-0.5186 -4.8074,0 0,-11.8694 -6.7264,11.8694 -4.1076,0 0,-19.3982 4.8124,0 0,10.6245 6.2281,-10.6245 4.6009,0 0,19.3982 z m 17.3113,-15.1828 -4.9355,0 0,15.1828 -4.9619,0 0,-15.1828 -4.9345,0 0,-4.2154 14.8319,0 0,4.2154 z m 17.7201,6.6329 -11.3557,0 c 0.0752,1.5214 0.5359,2.6828 1.3871,3.4913 0.8472,0.8014 2.0981,1.2082 3.7548,1.2082 1.0485,0 2.0594,-0.2359 3.0428,-0.7078 0.9835,-0.477 1.7594,-0.9784 2.334,-1.5204 l 0.5502,0 0,4.9873 c -1.1248,0.5665 -2.1784,0.9733 -3.171,1.2265 -0.9925,0.2543 -2.0889,0.3834 -3.293,0.3834 -3.1039,0 -5.4846,-0.8786 -7.1403,-2.6238 -1.6516,-1.7513 -2.4795,-4.2449 -2.4795,-7.482 0,-3.2016 0.7811,-5.7369 2.3473,-7.6123 1.5661,-1.8692 3.7161,-2.8059 6.4447,-2.8059 2.516,0 4.4076,0.8014 5.6779,2.393 1.2702,1.5988 1.9007,3.8921 1.9007,6.8871 l 0,2.1754 z m -4.9344,-3.6439 c -0.0234,-1.3028 -0.2828,-2.2811 -0.7719,-2.9361 -0.4841,-0.66 -1.2418,-0.9844 -2.272,-0.9844 -0.955,0 -1.7401,0.3061 -2.3574,0.9315 -0.6153,0.6194 -0.959,1.616 -1.0343,2.989 l 6.4356,0 z m 21.0599,-2.989 -4.9355,0 0,15.1828 -4.9619,0 0,-15.1828 -4.9344,0 0,-4.2154 14.8318,0 0,4.2154 z" />
  </g>
</svg>
